<svg version="1.1" id="Layer_1" xmlns="http://www.w3.org/2000/svg" xmlns:xlink="http://www.w3.org/1999/xlink" x="0px" y="0px" viewBox="0 0 445 220.1" style="enable-background:new 0 0 445 220.1;" xml:space="preserve">
 <style type="text/css">
  .st0{fill:#222222;}
	.st1{fill:#2D8825;}
 </style>
 <polygon class="st0" points="138,219 138,174 120.7,174 118.3,169 159,169 159,174 144,174 144,219 ">
 </polygon>
 <rect x="180" y="169" class="st0" width="5" height="50">
 </rect>
 <polygon class="st0" points="210,219 210,169 215,169 215,214 239,214 239,219 ">
 </polygon>
 <polygon class="st0" points="260,219 260,169 265,169 265,214 289,214 289,219 ">
 </polygon>
 <rect x="310" y="168" class="st1" width="5" height="51">
 </rect>
 <path class="st1" d="M361.3,220.1c-7.1,0-12.8-2.4-16.9-7.2c-4.1-4.7-6.1-11.2-6.1-19.3s2.1-14.5,6.2-19.2s9.8-7.1,16.9-7.1
	c7.2,0,12.8,2.4,16.9,7.1c4,4.7,6.1,11.2,6.1,19.2s-2.1,14.5-6.1,19.2C374.2,217.7,368.5,220.1,361.3,220.1z M361.4,172.5
	c-5.6,0-9.9,1.8-12.9,5.4c-3,3.6-4.6,8.9-4.6,15.7s1.5,12.2,4.5,15.8c3,3.7,7.2,5.5,12.9,5.5c5.7,0,9.9-1.8,12.9-5.4
	c3-3.6,4.5-9,4.5-15.9s-1.5-12.2-4.5-15.8C371.3,174.3,367.1,172.5,361.4,172.5z">
 </path>
 <path class="st0" d="M439,169h6v50h-5.3l-27-40.8c0.2,3.8,0.3,6.1,0.3,8.2V219h-6v-50h5.6l26.8,40.7">
 </path>
 <path class="st0" d="M47.6,169h-6.3l0,0l-17,34.5l0,0l0,0v0.2L7.2,169H0v50h6v-37.6c0-1.6-0.3-3.5-0.3-5L22.4,211h1.8h1.6H26
	l16.4-34.4c-0.1,1.4-0.4,3-0.4,4.3v0.4V219h5.6H48v-50H47.6z">
 </path>
 <path class="st0" d="M104.9,219h5.9l-20.2-52h-3.5l-20.6,52h5.8l6.4-16h19.9L104.9,219z M87.6,180.8c0.4-1,0.8-2.2,1.2-3.3
	c0.4,1.2,0.8,2.4,1.1,3.3l6.5,17.3H81L87.6,180.8z">
 </path>
 <g>
  <polygon class="st1" points="140.5,134.1 251.2,23.3 227.9,0 93.8,134.1 	">
  </polygon>
  <polygon class="st1" points="233.7,134.1 274.5,93.3 315.3,134.1 361.9,134.1 274.5,46.7 187.1,134.1 	">
  </polygon>
 </g>
</svg>